<?xml version="1.0" standalone="no"?>
<!DOCTYPE svg PUBLIC "-//W3C//DTD SVG 20010904//EN"
 "http://www.w3.org/TR/2001/REC-SVG-20010904/DTD/svg10.dtd">
<svg version="1.0" xmlns="http://www.w3.org/2000/svg"
 width="500.000000pt" height="500.000000pt" viewBox="0 0 500.000000 500.000000"
 preserveAspectRatio="xMidYMid meet">
<metadata>
Created by potrace 1.11, written by Peter Selinger 2001-2013
</metadata>
<g transform="translate(0.000000,500.000000) scale(0.100000,-0.100000)"
fill="#000000" stroke="none">
<path d="M0 2500 l0 -2500 2500 0 2500 0 0 2500 0 2500 -2500 0 -2500 0 0
-2500z m2780 1305 c167 -37 315 -100 455 -193 407 -270 632 -731 594 -1217
-26 -332 -165 -624 -405 -855 -174 -167 -375 -278 -614 -338 -97 -25 -121 -27
-310 -27 -189 0 -213 2 -310 27 -58 15 -129 36 -158 47 -492 194 -820 630
-861 1144 -36 472 171 917 555 1193 177 127 333 189 604 238 59 11 377 -3 450
-19z"/>
</g>
</svg>
